<svg width="446" height="588" viewBox="0 0 446 588" fill="none" xmlns="http://www.w3.org/2000/svg">
<g clip-path="url(#paint0_diamond_1008_6298_clip_path)" data-figma-skip-parse="true"><g transform="matrix(2.3098e-09 -0.304426 0.43379 -7.99041e-09 222.973 321.107)"><rect x="0" y="0" width="1003.28" height="502.305" fill="url(#paint0_diamond_1008_6298)" opacity="1" shape-rendering="crispEdges"></rect><rect x="0" y="0" width="1003.28" height="502.305" transform="scale(1 -1)" fill="url(#paint0_diamond_1008_6298)" opacity="1" shape-rendering="crispEdges"></rect><rect x="0" y="0" width="1003.28" height="502.305" transform="scale(-1 1)" fill="url(#paint0_diamond_1008_6298)" opacity="1" shape-rendering="crispEdges"></rect><rect x="0" y="0" width="1003.28" height="502.305" transform="scale(-1)" fill="url(#paint0_diamond_1008_6298)" opacity="1" shape-rendering="crispEdges"></rect></g></g><path fill-rule="evenodd" clip-rule="evenodd" d="M6.07812 191.831C6.07812 191.831 6.07812 268.98 114.526 256.469C222.973 243.958 222.973 321.107 222.973 321.107C222.973 321.107 222.973 243.958 331.421 256.469C439.868 268.98 439.868 191.831 439.868 191.831C415.021 89.6604 308.659 16.6816 222.973 16.6816C137.287 16.6816 30.9253 89.6604 6.07812 191.831Z" data-figma-gradient-fill="{&#34;type&#34;:&#34;GRADIENT_DIAMOND&#34;,&#34;stops&#34;:[{&#34;color&#34;:{&#34;r&#34;:0.65490198135375977,&#34;g&#34;:0.29019609093666077,&#34;b&#34;:1.0,&#34;a&#34;:1.0},&#34;position&#34;:0.0},{&#34;color&#34;:{&#34;r&#34;:1.0,&#34;g&#34;:0.33333334326744080,&#34;b&#34;:0.34901961684226990,&#34;a&#34;:1.0},&#34;position&#34;:1.0}],&#34;stopsVar&#34;:[{&#34;color&#34;:{&#34;r&#34;:0.65490198135375977,&#34;g&#34;:0.29019609093666077,&#34;b&#34;:1.0,&#34;a&#34;:1.0},&#34;position&#34;:0.0},{&#34;color&#34;:{&#34;r&#34;:1.0,&#34;g&#34;:0.33333334326744080,&#34;b&#34;:0.34901961684226990,&#34;a&#34;:1.0},&#34;position&#34;:1.0}],&#34;transform&#34;:{&#34;m00&#34;:4.6196055336622521e-06,&#34;m01&#34;:867.58068847656250,&#34;m02&#34;:-210.81704711914062,&#34;m10&#34;:-608.851074218750,&#34;m11&#34;:-1.5980825992301106e-05,&#34;m12&#34;:625.532714843750},&#34;opacity&#34;:1.0,&#34;blendMode&#34;:&#34;NORMAL&#34;,&#34;visible&#34;:true}"></path>
<path opacity="0.7" fill-rule="evenodd" clip-rule="evenodd" d="M6.07812 191.831C6.07812 191.831 6.07812 268.98 114.526 256.469C222.973 243.958 222.973 321.107 222.973 321.107C222.973 321.107 222.973 243.958 331.421 256.469C439.868 268.98 439.868 191.831 439.868 191.831C415.021 89.6604 308.659 16.6816 222.973 16.6816C137.287 16.6816 30.9253 89.6604 6.07812 191.831Z" fill="url(#paint1_radial_1008_6298)"></path>
<path opacity="0.7" fill-rule="evenodd" clip-rule="evenodd" d="M6.07812 191.831C6.07812 191.831 6.07812 268.98 114.526 256.469C222.973 243.958 222.973 321.107 222.973 321.107C222.973 321.107 222.973 243.958 331.421 256.469C439.868 268.98 439.868 191.831 439.868 191.831C415.021 89.6604 308.659 16.6816 222.973 16.6816C137.287 16.6816 30.9253 89.6604 6.07812 191.831Z" fill="url(#paint2_radial_1008_6298)"></path>
<path fill-rule="evenodd" clip-rule="evenodd" d="M114.582 256.468C223.03 243.958 223.03 321.107 223.03 321.107C223.03 321.107 223.03 243.958 331.477 256.468C343.108 257.81 353.491 258.12 362.76 257.605C389.872 256.468 406.556 208.511 394.043 166.809C381.53 125.107 308.716 39.6172 223.03 39.6172C137.344 39.6172 64.5293 125.107 52.0161 166.809C39.5029 208.511 56.1872 256.468 83.2991 257.605C92.5686 258.12 102.952 257.81 114.582 256.468Z" fill="url(#paint3_radial_1008_6298)"></path>
<path fill-rule="evenodd" clip-rule="evenodd" d="M172.733 212.856C148.524 222.935 127.107 231.852 102.464 208.511C62.8389 170.979 48.2402 0 221.339 0C394.438 0 379.84 170.979 340.214 208.511C315.572 231.852 294.155 222.935 269.945 212.856C255.227 206.728 239.476 200.17 221.339 200.17C203.203 200.17 187.452 206.728 172.733 212.856Z" fill="url(#paint4_radial_1008_6298)"></path>
<path opacity="0.7" fill-rule="evenodd" clip-rule="evenodd" d="M172.733 212.856C148.524 222.935 127.107 231.852 102.464 208.511C62.8389 170.979 48.2402 0 221.339 0C394.438 0 379.84 170.979 340.214 208.511C315.572 231.852 294.155 222.935 269.945 212.856C255.227 206.728 239.476 200.17 221.339 200.17C203.203 200.17 187.452 206.728 172.733 212.856Z" fill="url(#paint5_radial_1008_6298)"></path>
<path fill-rule="evenodd" clip-rule="evenodd" d="M6.08038 191.83C-4.5387 272.199 -4.8817 315.045 35.2778 375.319C-21.0315 448.298 22.7646 512.936 129.127 502.511C136.426 514.75 141.64 525.447 143.725 535.873C145.811 546.298 147.896 567.149 147.896 567.149C173.856 584.9 191.693 588 222.976 588C254.259 588 272.095 584.9 298.055 567.149C298.055 567.149 300.14 546.298 302.226 535.873C304.311 525.447 309.525 514.75 316.824 502.511C423.186 512.936 466.983 448.298 410.673 375.319C450.833 315.045 450.49 272.199 439.871 191.83C439.871 191.83 439.871 268.979 331.423 256.468C222.976 243.958 222.976 321.107 222.976 321.107C222.976 321.107 222.976 243.958 114.528 256.468C6.08038 268.979 6.08038 191.83 6.08038 191.83Z" fill="url(#paint6_linear_1008_6298)"></path>
<path opacity="0.3" fill-rule="evenodd" clip-rule="evenodd" d="M6.12921 191.83C-4.48987 272.199 -4.83287 315.045 35.3266 375.319C-20.9827 448.298 22.8135 512.936 129.176 502.511C136.475 514.75 141.689 525.447 143.774 535.873C145.86 546.298 147.945 567.149 147.945 567.149C173.905 584.9 191.741 588 223.024 588C254.307 588 272.144 584.9 298.103 567.149C298.103 567.149 300.189 546.298 302.275 535.873C304.36 525.447 309.574 514.75 316.873 502.511C423.235 512.936 467.031 448.298 410.722 375.319C450.882 315.045 450.539 272.199 439.92 191.83C439.92 191.83 439.92 268.979 331.472 256.468C223.024 243.958 223.024 321.107 223.024 321.107C223.024 321.107 223.024 243.958 114.577 256.468C6.12921 268.979 6.12921 191.83 6.12921 191.83Z" fill="url(#paint7_radial_1008_6298)"></path>
<path d="M310.755 329.447C225.248 339.872 233.535 377.404 250.275 410.766C250.275 410.766 312.829 375.319 367.053 371.149C421.277 366.979 412.946 294 412.946 294C412.946 294 396.262 319.021 310.755 329.447Z" fill="url(#paint8_radial_1008_6298)"></path>
<path d="M339.055 347.066C270.784 351.112 233.338 377.409 250.078 410.771C250.078 410.771 312.633 375.324 366.857 371.154C415.414 366.074 412.761 315.412 412.761 315.412C412.761 315.412 407.327 343.021 339.055 347.066Z" fill="url(#paint9_linear_1008_6298)"></path>
<path opacity="0.7" d="M310.755 329.447C225.248 339.872 233.535 377.404 250.275 410.766C250.275 410.766 312.829 375.319 367.053 371.149C421.277 366.979 412.946 294 412.946 294C412.946 294 396.262 319.021 310.755 329.447Z" fill="url(#paint10_radial_1008_6298)"></path>
<path d="M135.987 329.447C221.494 339.872 213.207 377.404 196.467 410.766C196.467 410.766 133.913 375.319 79.6891 371.149C25.4653 366.979 33.796 294 33.796 294C33.796 294 50.4802 319.021 135.987 329.447Z" fill="url(#paint11_radial_1008_6298)"></path>
<path d="M107.687 347.066C175.958 351.112 213.404 377.409 196.664 410.771C196.664 410.771 134.109 375.324 79.8854 371.154C31.3286 366.074 33.9808 315.412 33.9808 315.412C33.9808 315.412 39.4153 343.021 107.687 347.066Z" fill="url(#paint12_linear_1008_6298)"></path>
<path opacity="0.7" d="M135.987 329.447C221.494 339.872 213.207 377.404 196.467 410.766C196.467 410.766 133.913 375.319 79.6891 371.149C25.4653 366.979 33.796 294 33.796 294C33.796 294 50.4802 319.021 135.987 329.447Z" fill="url(#paint13_radial_1008_6298)"></path>
<path fill-rule="evenodd" clip-rule="evenodd" d="M222.32 531.701C183.361 570.653 160.529 510.837 219.24 443.417C220.856 441.562 223.785 441.562 225.4 443.417C284.111 510.837 261.28 570.653 222.32 531.701Z" fill="url(#paint14_linear_1008_6298)"></path>
<path opacity="0.7" fill-rule="evenodd" clip-rule="evenodd" d="M223.059 532.429C222.663 532.044 221.977 532.044 221.582 532.429C183.074 569.894 160.902 510.409 219.24 443.417C220.856 441.562 223.785 441.562 225.4 443.417C283.739 510.409 261.566 569.894 223.059 532.429Z" fill="url(#paint15_radial_1008_6298)"></path>
<path d="M250.264 410.765C289.023 386.48 313.297 376.593 364.968 371.148C485.929 481.659 285.718 504.595 250.264 410.765Z" fill="url(#paint16_radial_1008_6298)"></path>
<path opacity="0.7" d="M250.264 410.765C289.023 386.48 313.297 376.593 364.968 371.148C485.929 481.659 285.718 504.595 250.264 410.765Z" fill="url(#paint17_radial_1008_6298)"></path>
<path opacity="0.7" d="M82.2613 371.196C133.31 376.618 157.571 386.431 195.81 410.326C196.214 410.579 196.387 411.096 196.214 411.54C159.99 504.378 -38.4332 481.399 81.4569 371.469C81.6678 371.276 81.9769 371.166 82.2613 371.196Z" fill="url(#paint18_radial_1008_6298)"></path>
<path d="M196.512 410.765C157.752 386.48 133.479 376.593 81.8075 371.148C-39.1532 481.659 161.058 504.595 196.512 410.765Z" fill="url(#paint19_radial_1008_6298)"></path>
<path fill-rule="evenodd" clip-rule="evenodd" d="M319.086 425.362C329.453 425.362 337.856 416.96 337.856 406.596C337.856 400.776 335.206 395.575 331.047 392.132C335.836 391.899 341.093 391.975 347.009 392.353C347.35 392.375 347.673 392.585 347.833 392.887C371.986 438.328 302.152 473.2 283.13 411.865C283.003 411.455 283.155 410.984 283.506 410.736C290.078 406.093 295.888 402.348 301.721 399.461C300.816 401.661 300.317 404.07 300.317 406.596C300.317 416.96 308.72 425.362 319.086 425.362Z" fill="url(#paint20_radial_1008_6298)"></path>
<mask id="mask0_1008_6298" style="mask-type:alpha" maskUnits="userSpaceOnUse" x="283" y="392" width="70" height="53">
<path fill-rule="evenodd" clip-rule="evenodd" d="M319.086 425.362C329.453 425.362 337.856 416.96 337.856 406.596C337.856 400.776 335.206 395.575 331.047 392.132C335.836 391.899 341.093 391.975 347.009 392.353C347.35 392.375 347.673 392.585 347.833 392.887C371.986 438.328 302.152 473.2 283.13 411.865C283.003 411.455 283.155 410.984 283.506 410.736C290.078 406.093 295.888 402.348 301.721 399.461C300.816 401.661 300.317 404.07 300.317 406.596C300.317 416.96 308.72 425.362 319.086 425.362Z" fill="url(#paint21_radial_1008_6298)"></path>
</mask>
<g mask="url(#mask0_1008_6298)">
<path opacity="0.7" d="M347.011 392.353C317.204 390.451 304.101 396.189 283.508 410.736C283.157 410.984 283.005 411.455 283.133 411.865C302.155 473.2 371.988 438.328 347.836 392.887C347.675 392.585 347.353 392.375 347.011 392.353Z" fill="url(#paint22_radial_1008_6298)"></path>
</g>
<path fill-rule="evenodd" clip-rule="evenodd" d="M125.523 425.362C115.157 425.362 106.753 416.96 106.753 406.596C106.753 400.776 109.403 395.575 113.563 392.132C108.774 391.899 103.516 391.975 97.6004 392.353C97.2589 392.375 96.9366 392.585 96.776 392.887C72.6231 438.328 142.457 473.2 161.479 411.865C161.606 411.455 161.454 410.984 161.104 410.736C154.531 406.093 148.722 402.348 142.889 399.461C143.794 401.661 144.293 404.07 144.293 406.596C144.293 416.96 135.889 425.362 125.523 425.362Z" fill="url(#paint23_radial_1008_6298)"></path>
<mask id="mask1_1008_6298" style="mask-type:alpha" maskUnits="userSpaceOnUse" x="91" y="392" width="71" height="53">
<path fill-rule="evenodd" clip-rule="evenodd" d="M125.523 425.362C115.157 425.362 106.753 416.96 106.753 406.596C106.753 400.776 109.403 395.575 113.563 392.132C108.774 391.899 103.516 391.975 97.6004 392.353C97.2589 392.375 96.9366 392.585 96.776 392.887C72.6231 438.328 142.457 473.2 161.479 411.865C161.606 411.455 161.454 410.984 161.104 410.736C154.531 406.093 148.722 402.348 142.889 399.461C143.794 401.661 144.293 404.07 144.293 406.596C144.293 416.96 135.889 425.362 125.523 425.362Z" fill="url(#paint24_radial_1008_6298)"></path>
</mask>
<g mask="url(#mask1_1008_6298)">
<path opacity="0.7" d="M97.5982 392.353C127.406 390.451 140.509 396.189 161.102 410.736C161.452 410.984 161.604 411.455 161.477 411.865C142.455 473.2 72.621 438.328 96.7738 392.887C96.9344 392.585 97.2568 392.375 97.5982 392.353Z" fill="url(#paint25_radial_1008_6298)"></path>
</g>
<path opacity="0.1" d="M302.15 535.866C300.065 546.292 297.979 567.143 297.979 567.143C295.36 540.151 291.461 522.626 277.408 484.029C290.287 495.534 298.898 499.589 316.749 502.504C309.449 514.744 304.236 525.441 302.15 535.866Z" fill="black"></path>
<path opacity="0.1" d="M143.731 535.866C145.816 546.292 147.902 567.143 147.902 567.143C150.52 540.151 154.42 522.626 168.473 484.029C155.594 495.534 146.983 499.589 129.132 502.504C136.432 514.744 141.645 525.441 143.731 535.866Z" fill="black"></path>
<path opacity="0.3" d="M302.15 535.866C300.065 546.292 297.979 567.143 297.979 567.143C295.36 540.151 291.461 522.626 277.408 484.029C290.287 495.534 298.898 499.589 316.749 502.504C309.449 514.744 304.236 525.441 302.15 535.866Z" fill="url(#paint26_radial_1008_6298)"></path>
<path opacity="0.3" d="M143.731 535.866C145.816 546.292 147.902 567.143 147.902 567.143C150.52 540.151 154.42 522.626 168.473 484.029C155.594 495.534 146.983 499.589 129.132 502.504C136.432 514.744 141.645 525.441 143.731 535.866Z" fill="url(#paint27_radial_1008_6298)"></path>
<defs>
<clipPath id="paint0_diamond_1008_6298_clip_path"><path fill-rule="evenodd" clip-rule="evenodd" d="M6.07812 191.831C6.07812 191.831 6.07812 268.98 114.526 256.469C222.973 243.958 222.973 321.107 222.973 321.107C222.973 321.107 222.973 243.958 331.421 256.469C439.868 268.98 439.868 191.831 439.868 191.831C415.021 89.6604 308.659 16.6816 222.973 16.6816C137.287 16.6816 30.9253 89.6604 6.07812 191.831Z"></path></clipPath><linearGradient id="paint0_diamond_1008_6298" x1="0" y1="0" x2="500" y2="500" gradientUnits="userSpaceOnUse">
<stop stop-color="#A74AFF"></stop>
<stop offset="1" stop-color="#FF5559"></stop>
</linearGradient>
<radialGradient id="paint1_radial_1008_6298" cx="0" cy="0" r="1" gradientUnits="userSpaceOnUse" gradientTransform="translate(222.973 321.107) rotate(-90.9926) scale(287.618 412.083)">
<stop offset="0.723348" stop-opacity="0"></stop>
<stop offset="1"></stop>
</radialGradient>
<radialGradient id="paint2_radial_1008_6298" cx="0" cy="0" r="1" gradientUnits="userSpaceOnUse" gradientTransform="translate(215.797 16.6816) rotate(88.8292) scale(351.222 503.211)">
<stop offset="0.723348" stop-opacity="0"></stop>
<stop offset="1"></stop>
</radialGradient>
<radialGradient id="paint3_radial_1008_6298" cx="0" cy="0" r="1" gradientUnits="userSpaceOnUse" gradientTransform="translate(223.03 180.362) rotate(90) scale(140.745 175.243)">
<stop></stop>
<stop offset="1" stop-color="#3C3B3B"></stop>
</radialGradient>
<radialGradient id="paint4_radial_1008_6298" cx="0" cy="0" r="1" gradientUnits="userSpaceOnUse" gradientTransform="translate(221.339 -1.10256e-05) rotate(90) scale(185.583 239.97)">
<stop stop-color="#FF4F53"></stop>
<stop offset="1" stop-color="#A74AFF"></stop>
</radialGradient>
<radialGradient id="paint5_radial_1008_6298" cx="0" cy="0" r="1" gradientUnits="userSpaceOnUse" gradientTransform="translate(221.339 -6.64928) rotate(90) scale(244.279 317.595)">
<stop offset="0.723348" stop-opacity="0"></stop>
<stop offset="1"></stop>
</radialGradient>
<linearGradient id="paint6_linear_1008_6298" x1="222.976" y1="191.83" x2="222.976" y2="588" gradientUnits="userSpaceOnUse">
<stop stop-color="#FF8732"></stop>
<stop offset="1" stop-color="#FF4E52"></stop>
</linearGradient>
<radialGradient id="paint7_radial_1008_6298" cx="0" cy="0" r="1" gradientUnits="userSpaceOnUse" gradientTransform="translate(223.024 298.508) rotate(107.319) scale(303.241 352.764)">
<stop offset="0.734191" stop-opacity="0"></stop>
<stop offset="1"></stop>
</radialGradient>
<radialGradient id="paint8_radial_1008_6298" cx="0" cy="0" r="1" gradientUnits="userSpaceOnUse" gradientTransform="translate(358.711 287.745) rotate(114.847) scale(124.081 184.83)">
<stop stop-color="#F3BA2F"></stop>
<stop offset="1" stop-color="#FF9239"></stop>
</radialGradient>
<linearGradient id="paint9_linear_1008_6298" x1="402.07" y1="326.834" x2="252.333" y2="401.247" gradientUnits="userSpaceOnUse">
<stop stop-color="#FF9037"></stop>
<stop offset="1" stop-color="#FF923A"></stop>
</linearGradient>
<radialGradient id="paint10_radial_1008_6298" cx="0" cy="0" r="1" gradientUnits="userSpaceOnUse" gradientTransform="translate(314.193 212.45) rotate(104.142) scale(260.992 261.039)">
<stop offset="0.723348" stop-opacity="0"></stop>
<stop offset="1"></stop>
</radialGradient>
<radialGradient id="paint11_radial_1008_6298" cx="0" cy="0" r="1" gradientUnits="userSpaceOnUse" gradientTransform="translate(88.0313 287.745) rotate(65.1532) scale(124.081 184.83)">
<stop stop-color="#F3BA2F"></stop>
<stop offset="1" stop-color="#FF9239"></stop>
</radialGradient>
<linearGradient id="paint12_linear_1008_6298" x1="44.6717" y1="326.834" x2="194.409" y2="401.247" gradientUnits="userSpaceOnUse">
<stop stop-color="#FF9037"></stop>
<stop offset="1" stop-color="#FF923A"></stop>
</linearGradient>
<radialGradient id="paint13_radial_1008_6298" cx="0" cy="0" r="1" gradientUnits="userSpaceOnUse" gradientTransform="translate(132.55 212.45) rotate(75.8581) scale(260.992 261.039)">
<stop offset="0.723348" stop-opacity="0"></stop>
<stop offset="1"></stop>
</radialGradient>
<linearGradient id="paint14_linear_1008_6298" x1="222.32" y1="442.025" x2="222.32" y2="544.039" gradientUnits="userSpaceOnUse">
<stop></stop>
<stop offset="1" stop-color="#3C3C3C"></stop>
</linearGradient>
<radialGradient id="paint15_radial_1008_6298" cx="0" cy="0" r="1" gradientUnits="userSpaceOnUse" gradientTransform="translate(222.32 442.025) rotate(74.7783) scale(105.722 87.2319)">
<stop offset="0.723348" stop-opacity="0"></stop>
<stop offset="1"></stop>
</radialGradient>
<radialGradient id="paint16_radial_1008_6298" cx="0" cy="0" r="1" gradientUnits="userSpaceOnUse" gradientTransform="translate(326.82 420.258) rotate(90) scale(49.1093 76.5568)">
<stop></stop>
<stop offset="1" stop-color="#3C3B3B"></stop>
</radialGradient>
<radialGradient id="paint17_radial_1008_6298" cx="0" cy="0" r="1" gradientUnits="userSpaceOnUse" gradientTransform="translate(347.713 468.092) rotate(-113.178) scale(92.8008 138.423)">
<stop offset="0.723348" stop-opacity="0"></stop>
<stop offset="1"></stop>
</radialGradient>
<radialGradient id="paint18_radial_1008_6298" cx="0" cy="0" r="1" gradientUnits="userSpaceOnUse" gradientTransform="translate(99.0622 468.092) rotate(-66.8217) scale(92.8008 138.423)">
<stop offset="0.723348" stop-opacity="0"></stop>
<stop offset="1"></stop>
</radialGradient>
<radialGradient id="paint19_radial_1008_6298" cx="0" cy="0" r="1" gradientUnits="userSpaceOnUse" gradientTransform="translate(119.955 420.258) rotate(90) scale(49.1093 76.5568)">
<stop></stop>
<stop offset="1" stop-color="#3C3B3B"></stop>
</radialGradient>
<radialGradient id="paint20_radial_1008_6298" cx="0" cy="0" r="1" gradientUnits="userSpaceOnUse" gradientTransform="translate(339.117 434.069) rotate(-166.072) scale(34.6507 45.552)">
<stop stop-color="#FF8732"></stop>
<stop offset="1" stop-color="#FF4E52"></stop>
</radialGradient>
<radialGradient id="paint21_radial_1008_6298" cx="0" cy="0" r="1" gradientUnits="userSpaceOnUse" gradientTransform="translate(339.117 434.069) rotate(-166.072) scale(34.6507 45.552)">
<stop stop-color="#FF8732"></stop>
<stop offset="1" stop-color="#FF4E52"></stop>
</radialGradient>
<radialGradient id="paint22_radial_1008_6298" cx="0" cy="0" r="1" gradientUnits="userSpaceOnUse" gradientTransform="translate(327.429 444.128) rotate(-109.987) scale(48.8122 64.6378)">
<stop offset="0.723348" stop-opacity="0"></stop>
<stop offset="1"></stop>
</radialGradient>
<radialGradient id="paint23_radial_1008_6298" cx="0" cy="0" r="1" gradientUnits="userSpaceOnUse" gradientTransform="translate(105.492 434.069) rotate(-13.9279) scale(34.6507 45.552)">
<stop stop-color="#FF8732"></stop>
<stop offset="1" stop-color="#FF4E52"></stop>
</radialGradient>
<radialGradient id="paint24_radial_1008_6298" cx="0" cy="0" r="1" gradientUnits="userSpaceOnUse" gradientTransform="translate(105.492 434.069) rotate(-13.9279) scale(34.6507 45.552)">
<stop stop-color="#FF8732"></stop>
<stop offset="1" stop-color="#FF4E52"></stop>
</radialGradient>
<radialGradient id="paint25_radial_1008_6298" cx="0" cy="0" r="1" gradientUnits="userSpaceOnUse" gradientTransform="translate(117.18 444.128) rotate(-70.0132) scale(48.8123 64.6379)">
<stop offset="0.723348" stop-opacity="0"></stop>
<stop offset="1"></stop>
</radialGradient>
<radialGradient id="paint26_radial_1008_6298" cx="0" cy="0" r="1" gradientUnits="userSpaceOnUse" gradientTransform="translate(347.777 572.105) rotate(-128.623) scale(112.734 59.4042)">
<stop offset="0.723348" stop-opacity="0"></stop>
<stop offset="1"></stop>
</radialGradient>
<radialGradient id="paint27_radial_1008_6298" cx="0" cy="0" r="1" gradientUnits="userSpaceOnUse" gradientTransform="translate(98.1042 572.105) rotate(-51.3768) scale(112.734 59.4042)">
<stop offset="0.723348" stop-opacity="0"></stop>
<stop offset="1"></stop>
</radialGradient>
</defs>
</svg>